Coordinates
version=1
nRows=43
nColumns=12
inDegrees=yes

Units are S.I. units (second, meters, Newtons, ...)
Angles are in degrees

endheader
time	SC_y	SC_z	SC_x	AC_y	AC_z	AC_x	GH_y	GH_z	GH_yy	EL_x	PS_y
       0.0              -28.07          12.24          65.06          56.58         -6.274          2.947           69.4          45.76         -52.86          49.98          94.66
   0.02442              -28.07          12.24          65.06          56.58         -6.273          2.946          69.39          45.76         -52.84          49.98          94.66
   0.04884              -28.07          12.24          65.06          56.57         -6.271          2.945          69.38          45.77         -52.83          49.99          94.65
   0.07326              -28.07          12.24          65.06          56.57          -6.27          2.944          69.36          45.78         -52.82           50.0          94.64
   0.09768              -28.07          12.24          65.06          56.56         -6.269          2.943          69.35          45.78         -52.81          50.02          94.62
    0.1221              -28.07          12.24          65.06          56.56         -6.268          2.942          69.33          45.79         -52.79          50.03          94.61
    0.1465              -28.06          12.24          65.06          56.56         -6.266          2.941          69.31           45.8         -52.77          50.04           94.6
    0.1709              -28.06          12.23          65.06          56.55         -6.265           2.94          69.29          45.81         -52.76          50.05          94.59
    0.1954              -28.06          12.23          65.06          56.55         -6.263          2.938          69.27          45.82         -52.74          50.07          94.57
    0.2198              -28.06          12.23          65.06          56.54         -6.261          2.937          69.25          45.83         -52.72          50.08          94.56
    0.2442              -28.06          12.23          65.06          56.53         -6.259          2.935          69.23          45.84          -52.7           50.1          94.54
    0.2686              -28.06          12.23          65.06          56.53         -6.257          2.933           69.2          45.85         -52.68          50.12          94.52
     0.293              -28.05          12.23          65.06          56.52         -6.255          2.931          69.18          45.87         -52.65          50.14           94.5
    0.3175              -28.05          12.23          65.06          56.51         -6.253          2.929          69.15          45.88         -52.63          50.16          94.48
    0.3419              -28.05          12.22          65.06          56.51          -6.25          2.927          69.11          45.89          -52.6          50.18          94.46
    0.3663              -28.05          12.22          65.06           56.5         -6.247          2.925          69.08          45.91         -52.57          50.21          94.44
    0.3907              -28.04          12.22          65.06          56.49         -6.244          2.922          69.04          45.93         -52.53          50.23          94.41
    0.4151              -28.04          12.22          65.06          56.48         -6.241          2.919           69.0          45.95          -52.5          50.26          94.38
    0.4396              -28.04          12.22          65.06          56.47         -6.237          2.916          68.96          45.97         -52.46          50.29          94.35
     0.464              -28.03          12.21          65.06          56.46         -6.233          2.913          68.91          45.99         -52.41          50.33          94.32
    0.4884              -28.03          12.21          65.07          56.44         -6.229          2.909          68.86          46.02         -52.36          50.37          94.28
    0.5128              -28.02          12.21          65.07          56.43         -6.224          2.905           68.8          46.04         -52.31          50.41          94.24
    0.5373              -28.02           12.2          65.07          56.41         -6.219          2.901          68.73          46.08         -52.25          50.46          94.19
    0.5617              -28.01           12.2          65.07          56.39         -6.213          2.896          68.66          46.11         -52.19          50.51          94.14
    0.5861              -28.01           12.2          65.07          56.37         -6.207           2.89          68.58          46.15         -52.12          50.57          94.08
    0.6105               -28.0          12.19          65.07          56.35         -6.199          2.884          68.49          46.19         -52.04          50.63          94.02
    0.6349              -27.99          12.19          65.07          56.33         -6.191          2.877          68.39          46.24         -51.95           50.7          93.95
    0.6594              -27.98          12.18          65.07           56.3         -6.182          2.869          68.28          46.29         -51.84          50.78          93.87
    0.6838              -27.97          12.17          65.08          56.27         -6.172           2.86          68.15          46.35         -51.73          50.87          93.78
    0.7082              -27.96          12.16          65.08          56.23          -6.16           2.85          68.01          46.42          -51.6          50.98          93.68
    0.7326              -27.95          12.15          65.08          56.19         -6.146          2.839          67.84           46.5         -51.45           51.1          93.56
     0.757              -27.93          12.14          65.08          56.14         -6.131          2.826          67.65          46.58         -51.28          51.23          93.43
    0.7815              -27.91          12.13          65.09          56.09         -6.113          2.811          67.44          46.69         -51.09          51.39          93.27
    0.8059              -27.89          12.12          65.09          56.03         -6.092          2.793          67.18          46.81         -50.86          51.57          93.09
    0.8303              -27.87           12.1           65.1          55.95         -6.068          2.773          66.89          46.95         -50.59          51.78          92.88
    0.8547              -27.84          12.08           65.1          55.87          -6.04          2.748          66.54          47.11         -50.28          52.03          92.64
    0.8791              -27.81          12.06          65.11          55.76         -6.006           2.72          66.12          47.31          -49.9          52.33          92.34
    0.9036              -27.77          12.03          65.12          55.64         -5.965          2.685          65.62          47.54         -49.45          52.69          91.99
     0.928              -27.72           12.0          65.13          55.49         -5.916          2.643          65.02          47.83         -48.91          53.12          91.56
    0.9524              -27.66          11.96          65.14          55.31         -5.856          2.592          64.29          48.18         -48.25          53.65          91.04
    0.9768              -27.59          11.91          65.15          55.08         -5.782           2.53          63.38          48.61         -47.43           54.3           90.4
     1.001              -27.49          11.85          65.17           54.8         -5.689          2.451          62.25          49.14         -46.41          55.12           89.6
     1.026              -27.38          11.77          65.19          54.45         -5.573          2.352          60.82          49.81         -45.13          56.14          88.59
